<svg width="77" height="78" viewBox="0 0 77 78" fill="none" xmlns="http://www.w3.org/2000/svg">
<g clip-path="url(#clip0)" filter="url(#filter0_d)">
<path d="M71.3162 48.3385L52.8467 29.7337L54.8966 19.6373C55.4255 19.8438 55.9878 19.9517 56.5556 19.9558H56.5696C59.1776 19.9866 61.3169 17.8974 61.3478 15.2893C61.3787 12.6812 59.2894 10.542 56.6813 10.5111C54.0732 10.4803 51.934 12.5695 51.903 15.1776C51.8965 15.7357 51.9888 16.2905 52.1759 16.8163L41.3259 18.1405L23.6276 0.35C23.4104 0.128479 23.1141 0.00247917 22.8039 0C22.4976 0.00160417 22.2044 0.123521 21.9872 0.3395L18.6786 3.6295C18.2231 4.08508 18.2231 4.82358 18.6786 5.27917L20.4589 7.08517C13.5616 19.7681 15.8018 35.4741 25.9702 45.7228C26.0636 45.8121 26.1718 45.8843 26.2899 45.9363C26.2164 46.3311 26.178 46.7317 26.1756 47.1333V60.6667H12.1756C8.95556 60.6705 6.34602 63.28 6.34222 66.5V68.8333C6.34222 69.4776 6.8646 70 7.50889 70H61.1756C61.8199 70 62.3422 69.4776 62.3422 68.8333V66.5C62.3384 63.28 59.7289 60.6705 56.5089 60.6667H42.5089V54.6688C44.7021 55.1288 46.9367 55.3633 49.1776 55.3688C54.5547 55.363 59.8463 54.0225 64.5776 51.4675L66.3672 53.2677C66.5844 53.4892 66.8807 53.6152 67.1909 53.6177C67.4971 53.6161 67.7904 53.4941 68.0076 53.2782L71.3162 49.9882C71.7717 49.5326 71.7717 48.7941 71.3162 48.3385ZM54.9246 13.6348C55.8382 12.726 57.3156 12.7301 58.2243 13.6437C59.1332 14.5574 59.1291 16.0348 58.2154 16.9435C57.7781 17.3785 57.1863 17.6226 56.5694 17.6225H56.5624C55.2738 17.6158 54.2345 16.5658 54.2412 15.2771C54.2444 14.6602 54.4917 14.0699 54.9291 13.6348H54.9246ZM52.1782 21.301L50.8692 27.7445L48.2979 25.158L52.1782 21.301ZM50.8529 19.3282L46.6529 23.5037L43.4037 20.237L50.8529 19.3282ZM56.5089 63C58.4419 63 60.0089 64.567 60.0089 66.5V67.6667H8.67556V66.5C8.67556 64.567 10.2425 63 12.1756 63H56.5089ZM40.1756 58.3333V60.6667H28.5089V58.3333H40.1756ZM28.5089 56V47.1333C28.5089 44.303 31.1257 42 34.3422 42C37.5587 42 40.1756 44.303 40.1756 47.1333V56H28.5089ZM42.5089 52.29V47.1333C42.5089 43.0162 38.8456 39.6667 34.3422 39.6667C31.4305 39.622 28.7078 41.1041 27.1649 43.5738C18.2886 34.2249 16.2898 20.2875 22.1805 8.82073L62.8719 49.7455C56.5885 52.9419 49.3857 53.8418 42.5089 52.29ZM67.2037 50.7943L65.5599 49.1412L22.7922 6.11567L21.1414 4.46133L22.7922 2.81633L40.1499 20.272C40.1581 20.272 40.1627 20.2872 40.1709 20.293L68.8592 49.1493L67.2037 50.7943Z" fill="#212121"/>
<path d="M34.3527 44.3333H34.3422C32.4092 44.3304 30.8399 45.895 30.837 47.8281C30.8341 49.7611 32.3987 51.3304 34.3317 51.3333H34.3422C36.2752 51.3362 37.8446 49.7716 37.8475 47.8386C37.8504 45.9055 36.2857 44.3362 34.3527 44.3333ZM35.1694 48.6605C34.9498 48.8789 34.6521 49.0012 34.3422 49C33.6979 48.9966 33.1783 48.4716 33.1817 47.8273C33.1833 47.5189 33.307 47.2237 33.5256 47.0062C33.7427 46.7902 34.036 46.6683 34.3422 46.6667C34.9865 46.67 35.5061 47.195 35.5028 47.8393C35.5012 48.1477 35.3775 48.4429 35.1589 48.6605H35.1694Z" fill="#2196F3"/>
</g>
<defs>
<filter id="filter0_d" x="0" y="0" width="78" height="78" filterUnits="userSpaceOnUse" color-interpolation-filters="sRGB">
<feFlood flood-opacity="0" result="BackgroundImageFix"/>
<feColorMatrix in="SourceAlpha" type="matrix" values="0 0 0 0 0 0 0 0 0 0 0 0 0 0 0 0 0 0 127 0"/>
<feOffset dy="4"/>
<feGaussianBlur stdDeviation="2"/>
<feColorMatrix type="matrix" values="0 0 0 0 0 0 0 0 0 0 0 0 0 0 0 0 0 0 0.25 0"/>
<feBlend mode="normal" in2="BackgroundImageFix" result="effect1_dropShadow"/>
<feBlend mode="normal" in="SourceGraphic" in2="effect1_dropShadow" result="shape"/>
</filter>
<clipPath id="clip0">
<rect width="70" height="70" fill="white" transform="translate(4)"/>
</clipPath>
</defs>
</svg>
