<svg width="45" height="50" viewBox="0 0 45 50" fill="none" xmlns="http://www.w3.org/2000/svg">
<path d="M6 0L13.3076 6.91796H33.6924V26.2158L41 33.1338V0H6Z" fill="#AFB1B8"/>
<path d="M0 6.62646V38.8137H34V26.0195L13.5231 6.63443L0 6.62646ZM27.5231 34.1055H5.38008V12.4579H6.9453V32.6397H27.5231V34.1055Z" fill="#AFB1B8"/>
<path d="M9.79099 44.7837L10.6089 43.0991H11.2924L10.101 45.3452V46.6538H9.48093V45.3452L8.28708 43.0991H8.97311L9.79099 44.7837ZM13.3017 45.8262H11.9248L11.6367 46.6538H10.9946L12.3374 43.0991H12.8916L14.2368 46.6538H13.5923L13.3017 45.8262ZM12.0981 45.3281H13.1284L12.6133 43.8535L12.0981 45.3281ZM15.7358 45.6943C15.7358 45.5299 15.7806 45.3794 15.8701 45.2427C15.9596 45.1043 16.1362 44.9408 16.3999 44.752C16.2615 44.5778 16.1647 44.4297 16.1093 44.3076C16.0556 44.1855 16.0288 44.0675 16.0288 43.9536C16.0288 43.6753 16.1134 43.4556 16.2827 43.2944C16.452 43.1317 16.6798 43.0503 16.9663 43.0503C17.2251 43.0503 17.4367 43.1268 17.601 43.2798C17.7671 43.4312 17.8501 43.6191 17.8501 43.8438C17.8501 43.9919 17.8126 44.1286 17.7378 44.2539C17.6629 44.3776 17.54 44.5013 17.3691 44.625L17.1274 44.8008L17.8134 45.6113C17.9127 45.416 17.9624 45.1987 17.9624 44.9595H18.4775C18.4775 45.3973 18.375 45.7562 18.1699 46.0361L18.6924 46.6538H18.0039L17.8037 46.417C17.5498 46.6074 17.247 46.7026 16.8955 46.7026C16.5439 46.7026 16.2623 46.6099 16.0508 46.4243C15.8408 46.2371 15.7358 45.9938 15.7358 45.6943ZM16.9126 46.229C17.1128 46.229 17.2999 46.1623 17.4741 46.0288L16.6977 45.1133L16.622 45.167C16.4267 45.3151 16.3291 45.4844 16.3291 45.6748C16.3291 45.8392 16.382 45.9727 16.4878 46.0752C16.5936 46.1777 16.7352 46.229 16.9126 46.229ZM16.5854 43.939C16.5854 44.0757 16.6692 44.2474 16.8369 44.4541L17.1079 44.2686L17.1836 44.2075C17.2845 44.118 17.3349 44.0033 17.3349 43.8633C17.3349 43.7705 17.2999 43.6916 17.2299 43.6265C17.16 43.5597 17.0713 43.5264 16.9638 43.5264C16.8483 43.5264 16.7563 43.5654 16.688 43.6436C16.6196 43.7217 16.5854 43.8201 16.5854 43.939ZM23.0429 45.4966C23.0071 45.8758 22.8672 46.172 22.623 46.3853C22.3789 46.5968 22.0542 46.7026 21.6489 46.7026C21.3657 46.7026 21.1159 46.6359 20.8994 46.5024C20.6845 46.3674 20.5185 46.1761 20.4013 45.9287C20.2841 45.6813 20.2231 45.394 20.2182 45.0669V44.7349C20.2182 44.3996 20.2776 44.1042 20.3965 43.8486C20.5153 43.5931 20.6854 43.3962 20.9067 43.2578C21.1297 43.1195 21.3869 43.0503 21.6782 43.0503C22.0704 43.0503 22.3862 43.1569 22.6255 43.3701C22.8647 43.5833 23.0039 43.8844 23.0429 44.2734H22.4277C22.3984 44.0179 22.3235 43.834 22.2031 43.7217C22.0843 43.6077 21.9093 43.5508 21.6782 43.5508C21.4096 43.5508 21.2029 43.6493 21.0581 43.8462C20.9148 44.0415 20.8416 44.3288 20.8383 44.708V45.0229C20.8383 45.4071 20.9067 45.7 21.0434 45.9019C21.1818 46.1037 21.3836 46.2046 21.6489 46.2046C21.8914 46.2046 22.0737 46.1501 22.1958 46.041C22.3178 45.932 22.3952 45.7505 22.4277 45.4966H23.0429ZM26.4341 44.9692C26.4341 45.3175 26.3738 45.6235 26.2534 45.8872C26.1329 46.1493 25.9604 46.3511 25.7358 46.4927C25.5128 46.6326 25.2557 46.7026 24.9643 46.7026C24.6762 46.7026 24.4191 46.6326 24.1928 46.4927C23.9682 46.3511 23.7941 46.1501 23.6704 45.8896C23.5483 45.6292 23.4865 45.3289 23.4848 44.9888V44.7886C23.4848 44.4419 23.5459 44.1359 23.6679 43.8706C23.7916 43.6053 23.965 43.4027 24.188 43.2627C24.4126 43.1211 24.6697 43.0503 24.9594 43.0503C25.2492 43.0503 25.5055 43.1203 25.7285 43.2603C25.9531 43.3986 26.1264 43.5988 26.2485 43.8608C26.3706 44.1213 26.4324 44.4248 26.4341 44.7715V44.9692ZM25.8164 44.7837C25.8164 44.3898 25.7415 44.0879 25.5918 43.8779C25.4437 43.668 25.2329 43.563 24.9594 43.563C24.6925 43.563 24.4834 43.668 24.332 43.8779C24.1823 44.0863 24.1058 44.3817 24.1025 44.7642V44.9692C24.1025 45.3599 24.1782 45.6618 24.3296 45.875C24.4826 46.0882 24.6941 46.1948 24.9643 46.1948C25.2378 46.1948 25.4477 46.0907 25.5942 45.8823C25.7423 45.674 25.8164 45.3696 25.8164 44.9692V44.7837Z" fill="#AFB1B8"/>
</svg>
